<svg width="15" height="15" viewBox="0 0 15 15" fill="none" xmlns="http://www.w3.org/2000/svg">
<circle cx="7.11548" cy="7.48767" r="6.45892" stroke="#67748E" stroke-width="0.909319"/>
<path d="M6.62752 8.74534V8.7121C6.63121 8.35948 6.66814 8.07886 6.73829 7.87024C6.80845 7.66162 6.90814 7.49269 7.03737 7.36346C7.16661 7.23423 7.32169 7.11515 7.50262 7.00622C7.61154 6.93976 7.70939 6.86129 7.79616 6.77083C7.88293 6.67852 7.95124 6.57237 8.00109 6.45236C8.05278 6.33236 8.07863 6.19943 8.07863 6.05359C8.07863 5.87266 8.03617 5.71573 7.95124 5.58281C7.86632 5.44988 7.75278 5.34742 7.61062 5.27541C7.46846 5.20341 7.31061 5.16741 7.13707 5.16741C6.98568 5.16741 6.83983 5.1988 6.69952 5.26157C6.55921 5.32434 6.44198 5.42311 6.34782 5.55788C6.25367 5.69265 6.1992 5.86897 6.18443 6.08682H5.48657C5.50134 5.77296 5.58257 5.50434 5.73027 5.28095C5.87981 5.05756 6.07643 4.88679 6.32013 4.76863C6.56567 4.65048 6.83799 4.5914 7.13707 4.5914C7.462 4.5914 7.74447 4.65602 7.98447 4.78525C8.22632 4.91448 8.41279 5.09172 8.54387 5.31695C8.6768 5.54219 8.74326 5.79881 8.74326 6.08682C8.74326 6.2899 8.71187 6.47359 8.6491 6.63791C8.58818 6.80222 8.49956 6.94899 8.38325 7.07822C8.26879 7.20746 8.13032 7.32192 7.96786 7.42161C7.80539 7.52316 7.67523 7.63023 7.57739 7.74285C7.47954 7.85362 7.40846 7.98563 7.36415 8.13886C7.31984 8.2921 7.29584 8.48318 7.29215 8.7121V8.74534H6.62752ZM6.98199 10.3848C6.84537 10.3848 6.72814 10.3358 6.63029 10.238C6.53244 10.1401 6.48352 10.0229 6.48352 9.88628C6.48352 9.74966 6.53244 9.63243 6.63029 9.53458C6.72814 9.43674 6.84537 9.38781 6.98199 9.38781C7.11861 9.38781 7.23584 9.43674 7.33369 9.53458C7.43154 9.63243 7.48046 9.74966 7.48046 9.88628C7.48046 9.97675 7.45738 10.0598 7.41123 10.1355C7.36692 10.2112 7.30692 10.2721 7.23123 10.3183C7.15738 10.3626 7.0743 10.3848 6.98199 10.3848Z" fill="#67748E"/>
</svg>
